# xmcd CD database file
# Copyright (C) 1993-1996 Ti Kan
#
# Track frame offsets:
# 150
# 19237
# 40732
# 68462
# 85230
# 101587
# 133015
# 151762
# 176025
# 214507
# 232335
#
# Disc length: 3390 seconds
#
# Revision: 0
# Processed by: cddbd v1.4b41PL1 Copyright (c) Steve Scherf et al.
# Submitted via: inCDius 1.1d1
#
DISCID=8b0d3c0b
DTITLE=The Hight Street Rhythm Rockers - Crossing the Line
DYEAR=1900
DGENRE=
TTITLE0=Fogbound
TTITLE1=Lonely, Lonely, Lonely
TTITLE2=She's a Lady
TTITLE3=Love So Strong
TTITLE4=Hard Time Killin' Floor
TTITLE5=Twilight
TTITLE6=The Blues Is What It Is
TTITLE7=Hey, Hey Little Mama
TTITLE8=Jim Beam Blues
TTITLE9=Got to Move
TTITLE10=Death Letter Blues
EXTD=
EXTT0=
EXTT1=
EXTT2=
EXTT3=
EXTT4=
EXTT5=
EXTT6=
EXTT7=
EXTT8=
EXTT9=
EXTT10=
PLAYORDER=
